<svg width="42" height="40" viewBox="0 0 42 40" fill="none" xmlns="http://www.w3.org/2000/svg">
<path d="M26.9382 39.6503C26.7295 39.651 26.5234 39.604 26.3356 39.5131L21.0001 36.9023L15.6646 39.5103C15.345 39.6667 14.9771 39.6928 14.6386 39.5832C14.3 39.4736 14.0173 39.2369 13.85 38.9228L11.0662 33.6738L5.21462 32.6485C4.86306 32.5865 4.54947 32.39 4.34036 32.1007C4.13125 31.8114 4.04308 31.452 4.09454 31.0987L4.92637 25.2238L0.796071 20.9549C0.548665 20.6989 0.41037 20.3569 0.41037 20.0009C0.41037 19.6449 0.548665 19.3028 0.796071 19.0469L4.92637 14.778L4.09454 8.89753C4.04423 8.54492 4.13295 8.18657 4.34196 7.89817C4.55096 7.60976 4.86388 7.41389 5.21462 7.35193L11.0649 6.32519L13.85 1.0803C14.0166 0.765543 14.299 0.527873 14.6376 0.417482C14.9762 0.307092 15.3445 0.332624 15.6646 0.488686L21.0001 3.09672L26.3356 0.488686C26.6555 0.332519 27.0236 0.306783 27.3622 0.41691C27.7008 0.527037 27.9833 0.764411 28.1502 1.07892L30.9339 6.32519L36.7855 7.35193C37.1363 7.41358 37.4493 7.60912 37.6585 7.89725C37.8678 8.18539 37.9569 8.54357 37.907 8.89616L37.0738 14.778L41.2041 19.0469C41.4515 19.3028 41.5898 19.6449 41.5898 20.0009C41.5898 20.3569 41.4515 20.6989 41.2041 20.9549L37.0738 25.2238L37.9056 31.1042C37.9555 31.4568 37.8664 31.815 37.6572 32.1031C37.4479 32.3913 37.1349 32.5868 36.7842 32.6485L30.9339 33.6738L28.1502 38.9228C28.0332 39.1426 27.8585 39.3265 27.645 39.4546C27.4315 39.5828 27.1872 39.6504 26.9382 39.6503ZM21.0001 34.0019C21.2088 34.0012 21.4149 34.0482 21.6027 34.1392L26.3479 36.4589L28.8187 31.7919C28.9166 31.6075 29.0552 31.4479 29.2241 31.3251C29.393 31.2024 29.5876 31.1198 29.7933 31.0836L34.997 30.1708L34.2571 24.941C34.2276 24.7341 34.2458 24.5231 34.3103 24.3242C34.3748 24.1253 34.4838 23.9438 34.6291 23.7935L38.3009 19.9981L34.6291 16.2014C34.484 16.0512 34.3751 15.8699 34.3106 15.6713C34.2462 15.4727 34.2279 15.262 34.2571 15.0552L35.0011 9.82269L29.7988 8.91537C29.5931 8.8792 29.3985 8.7966 29.2296 8.67387C29.0607 8.55113 28.9221 8.39149 28.8242 8.20709L26.3534 3.54008L21.6082 5.85986C21.4205 5.95154 21.2144 5.9992 21.0056 5.9992C20.7967 5.9992 20.5906 5.95154 20.403 5.85986L15.6468 3.54008L13.176 8.20709C13.0781 8.39149 12.9394 8.55113 12.7706 8.67387C12.6017 8.7966 12.407 8.8792 12.2014 8.91537L6.99907 9.82269L7.73893 15.0525C7.76819 15.2592 7.74989 15.4699 7.68543 15.6686C7.62097 15.8672 7.51204 16.0485 7.36694 16.1986L3.69373 20.0009L7.36556 23.7962C7.51086 23.9466 7.61991 24.1281 7.68437 24.327C7.74884 24.5258 7.76703 24.7368 7.73755 24.9438L6.99907 30.1736L12.2028 31.0864C12.4084 31.1226 12.603 31.2052 12.7719 31.3279C12.9408 31.4506 13.0795 31.6103 13.1774 31.7947L15.6481 36.4617L20.3934 34.1419C20.5822 34.0494 20.7898 34.0015 21.0001 34.0019Z" fill="#ECECEC"/>
<path d="M16.8821 18.6282C16.0677 18.6282 15.2715 18.3867 14.5943 17.9342C13.9171 17.4817 13.3893 16.8386 13.0776 16.0862C12.766 15.3337 12.6844 14.5057 12.8433 13.7069C13.0022 12.9081 13.3944 12.1744 13.9703 11.5985C14.5462 11.0226 15.28 10.6304 16.0788 10.4715C16.8776 10.3126 17.7055 10.3941 18.458 10.7058C19.2105 11.0175 19.8536 11.5453 20.3061 12.2225C20.7586 12.8997 21.0001 13.6958 21.0001 14.5103C21.0001 15.6024 20.5662 16.6498 19.794 17.4221C19.0217 18.1944 17.9743 18.6282 16.8821 18.6282ZM16.8821 13.1376C16.6107 13.1376 16.3453 13.2181 16.1195 13.369C15.8938 13.5198 15.7179 13.7342 15.614 13.985C15.5101 14.2358 15.4829 14.5118 15.5359 14.7781C15.5888 15.0443 15.7196 15.2889 15.9115 15.4809C16.1035 15.6729 16.3481 15.8036 16.6143 15.8566C16.8806 15.9095 17.1566 15.8823 17.4074 15.7784C17.6582 15.6746 17.8726 15.4986 18.0234 15.2729C18.1743 15.0472 18.2548 14.7818 18.2548 14.5103C18.2548 14.1462 18.1102 13.7971 17.8527 13.5397C17.5953 13.2823 17.2462 13.1376 16.8821 13.1376Z" fill="#ECECEC"/>
<path d="M25.118 29.6094C24.3036 29.6094 23.5074 29.3679 22.8302 28.9154C22.153 28.4629 21.6252 27.8198 21.3135 27.0673C21.0019 26.3149 20.9203 25.4869 21.0792 24.6881C21.2381 23.8893 21.6303 23.1555 22.2062 22.5796C22.7821 22.0037 23.5158 21.6115 24.3147 21.4527C25.1135 21.2938 25.9414 21.3753 26.6939 21.687C27.4463 21.9987 28.0895 22.5265 28.542 23.2037C28.9945 23.8809 29.236 24.677 29.236 25.4915C29.236 26.5836 28.8021 27.631 28.0299 28.4033C27.2576 29.1756 26.2102 29.6094 25.118 29.6094ZM25.118 24.1188C24.8465 24.1188 24.5812 24.1993 24.3554 24.3502C24.1297 24.501 23.9538 24.7154 23.8499 24.9662C23.746 25.217 23.7188 25.493 23.7717 25.7593C23.8247 26.0255 23.9554 26.2701 24.1474 26.4621C24.3394 26.654 24.584 26.7848 24.8502 26.8377C25.1165 26.8907 25.3925 26.8635 25.6433 26.7596C25.8941 26.6557 26.1085 26.4798 26.2593 26.2541C26.4102 26.0283 26.4907 25.763 26.4907 25.4915C26.4907 25.1274 26.3461 24.7783 26.0886 24.5209C25.8312 24.2634 25.4821 24.1188 25.118 24.1188Z" fill="#ECECEC"/>
<path d="M15.5095 26.8641C15.238 26.8641 14.9727 26.7835 14.747 26.6327C14.5214 26.4819 14.3455 26.2675 14.2416 26.0167C14.1377 25.7659 14.1106 25.49 14.1635 25.2238C14.2164 24.9575 14.3471 24.713 14.539 24.521L25.5202 13.5398C25.7791 13.2898 26.1258 13.1514 26.4857 13.1546C26.8456 13.1577 27.1899 13.302 27.4444 13.5565C27.6989 13.811 27.8433 14.1553 27.8464 14.5152C27.8495 14.8751 27.7112 15.2219 27.4611 15.4807L16.4799 26.4619C16.2226 26.7194 15.8735 26.864 15.5095 26.8641Z" fill="#ECECEC"/>
</svg>
